PathFileType	4	(X/Y/Z)	AB03\squats_1.trc
DataRate	CameraRate	NumFrames	NumMarkers	Units	OrigDataRate	OrigDataStartFrame	OrigNumFrames
200.000000	200.000000	5	35	mm	200.000000	0	309
Frame#	Time	C7			LSHO			STRN			LASI			RASI			LPSI			RPSI			LGTR			RGTR			LTHC			LTHL			LTHR			LKNE			LMKNE			LSHC			LSHL			LSHR			LANK			LMANK			LMT1			LMT5			LCAL			RTHC			RTHL			RTHR			RKNE			RMKNE			RSHC			RSHL			RSHR			RANK			RMANK			RMT1			RMT5			RCAL			
		X1	Y1	Z1	X2	Y2	Z2	X3	Y3	Z3	X4	Y4	Z4	X5	Y5	Z5	X6	Y6	Z6	X7	Y7	Z7	X8	Y8	Z8	X9	Y9	Z9	X10	Y10	Z10	X11	Y11	Z11	X12	Y12	Z12	X13	Y13	Z13	X14	Y14	Z14	X15	Y15	Z15	X16	Y16	Z16	X17	Y17	Z17	X18	Y18	Z18	X19	Y19	Z19	X20	Y20	Z20	X21	Y21	Z21	X22	Y22	Z22	X23	Y23	Z23	X24	Y24	Z24	X25	Y25	Z25	X26	Y26	Z26	X27	Y27	Z27	X28	Y28	Z28	X29	Y29	Z29	X30	Y30	Z30	X31	Y31	Z31	X32	Y32	Z32	X33	Y33	Z33	X34	Y34	Z34	X35	Y35	Z35	

1	24.49	-2247.019491170652	1558.231414662682	2472.249547565791	-2192.868009972124	1506.1583892192	2313.842499073813	-2133.832417704996	1411.058271552554	2474.714279428413	-2256.29527296243	1024.782478513863	2321.790366747378	-2258.829818101593	1010.688477716259	2644.852413785489	-2479.728126642193	1155.005342426389	2426.895831775621	-2478.698313637601	1155.240886158651	2531.144389190817	-2351.447578187921	991.4643248814097	2251.622780066391	-2347.778076014541	1002.158945555036	2710.08935166796	-2321.967569098936	866.2839196974109	2231.607835294391	-2211.62129377516	778.8127654735135	2335.384911559196	-2455.633526923698	770.4605584325129	2283.720130086187	-2294.394623893726	526.3965316327832	2228.024569238397	-2296.165837294017	487.5155583484787	2392.847855950707	-2348.56574118603	309.9001402545807	2163.833992297712	-2265.388895317246	274.4147227146693	2218.532934644698	-2394.803160745448	244.4135615947686	2232.819468296721	-2332.286394230597	122.6916602075974	2147.633188123724	-2295.993673081767	112.0719657752811	2242.112133088729	-2191.798083644117	58.15342058434237	2209.931398847524	-2219.062577752098	54.66321109152078	2103.370349231443	-2405.956416955384	70.71421370441871	2200.814402256954	-2439.425207305665	705.6651318289022	2629.667602829765	-2327.001566591603	822.2031142718635	2731.172455727298	-2197.923547392837	779.2497441516473	2609.067950464351	-2258.573845720326	527.3224323218726	2722.769816526425	-2236.036094797854	494.6538257051953	2570.377547339238	-2370.693898108662	219.7650509702105	2710.286203225851	-2305.272554115684	320.7850030575266	2775.370804492361	-2247.20658547075	268.8387010075888	2717.176216582247	-2325.48759160847	119.5969301712744	2788.477930877818	-2305.315193436577	114.864960629964	2695.681103511256	-2177.644185821582	47.77437308445757	2706.690122320172	-2203.847062117396	57.08475632230427	2821.136834972809	-2400.563652625611	69.4212312025949	2739.637234201682	
2	24.495	-2244.820025241345	1556.36191326219	2472.35207326309	-2190.818542842624	1503.627021520314	2314.204024955009	-2132.733797646973	1408.405495703883	2474.938589047709	-2258.38308909205	1023.602738249663	2322.040202161224	-2260.775874505097	1009.129923525537	2644.900301783337	-2480.871435466289	1155.178154944864	2427.405033489918	-2479.754569127339	1155.199697350717	2531.652642485428	-2353.514165822011	991.1473695553849	2251.635225507839	-2349.580199340262	1001.233429569343	2710.351939842195	-2323.933824747817	866.101067504712	2231.488573971128	-2213.313746965938	779.1528208223428	2335.473757027557	-2457.184509163152	769.8603872018458	2283.379667979645	-2294.741784742348	526.4576328011043	2227.822618820451	-2296.816292402241	487.4805978433508	2392.626155170739	-2348.755874121709	309.9342365511715	2163.684455240189	-2265.567977212985	274.5103695073774	2218.407957407754	-2395.004674422835	244.4435160393686	2232.619942533925	-2332.35081424133	122.6851766376796	2147.558778323373	-2296.114055345037	112.1374277717742	2242.037982793458	-2191.83798150722	58.21697064874876	2209.929910722526	-2219.080206661392	54.69795290556403	2103.388883215556	-2405.992895855572	70.70108206408003	2200.77420237818	-2440.67384483392	704.6828002041289	2629.978405836037	-2329.038005657927	821.4778398387318	2731.531196278198	-2199.468356594401	779.4352668612208	2609.592843027679	-2258.760871175073	527.3792782433319	2723.196763620313	-2236.101948811502	494.7764844668922	2570.72409104295	-2370.757354382444	219.7717013451034	2710.443427308644	-2305.355167148407	320.8530907942055	2775.560607719929	-2247.269132793466	268.8566417152724	2717.367589108871	-2325.5660642659	119.5311629971455	2788.540671523687	-2305.362738436402	114.8761208791512	2695.734912943938	-2177.682276589365	47.80148261162956	2706.696151646725	-2203.889832432787	57.09617387219628	2821.162709554959	-2400.597693291448	69.39043408748321	2739.674888013346	
3	24.5	-2242.616548243895	1554.485692867464	2472.455129271435	-2188.76300808838	1501.088589996659	2314.56468717807	-2131.634270012954	1405.744142556275	2475.165421006991	-2260.474860390265	1022.422204008146	2322.287937961559	-2262.725182151835	1007.564918619716	2644.947518465312	-2482.01663522048	1155.350112220145	2427.916213908071	-2480.810837305025	1155.156759118883	2532.164445682351	-2355.58303033403	990.8299399242459	2251.649222951898	-2351.38437552706	1000.306091136917	2710.615383003546	-2325.896937713835	865.9169763491786	2231.372361566403	-2215.006883105856	779.4930488838334	2335.569870624565	-2458.733089710091	769.2571085332684	2283.036906431922	-2295.080345037257	526.5186939748751	2227.621758257334	-2297.469193858211	487.4445029048121	2392.405610964404	-2348.93826511921	309.9687287975639	2163.533158359363	-2265.743957856906	274.6050766508961	2218.285954226151	-2395.202004984349	244.4753233931162	2232.418823930429	-2332.413792198604	122.6793050559806	2147.484790235258	-2296.234790081526	112.2019066308936	2241.964685206854	-2191.877554015223	58.27968759387928	2209.928849749516	-2219.097778554646	54.73304399970572	2103.407660159538	-2406.029262782852	70.68837562510666	2200.734211334317	-2441.923621318872	703.6987504395553	2630.292540974694	-2331.077241062142	820.7518080889533	2731.892398598702	-2201.013944570101	779.6219321038703	2610.119534866259	-2258.947172799958	527.4351310541227	2723.624223656635	-2236.171124159078	494.9003787543153	2571.070785671039	-2370.819764118465	219.7784777892236	2710.600846139847	-2305.437800748186	320.9203214981299	2775.7510419834	-2247.331265615232	268.8747411158293	2717.559665677831	-2325.643384945498	119.4656047188201	2788.603323822488	-2305.409886577342	114.8872055149183	2695.788527441037	-2177.720008694217	47.82864315407012	2706.702118447409	-2203.932332945043	57.10629414564799	2821.188581567231	-2400.631807681548	69.35985384784007	2739.712333912054	
4	24.505	-2240.414963639409	1552.602709346102	2472.558502291312	-2186.706003588185	1498.54554895918	2314.922812067899	-2130.537622659776	1403.076353481246	2475.395014990481	-2262.564355645092	1021.242910085489	2322.532442069624	-2264.672360560488	1005.994833562224	2644.994695566661	-2483.160261145332	1155.517796203401	2428.428244074759	-2481.863482272037	1155.109629719534	2532.678753993901	-2357.647915102613	990.5118567338156	2251.665507521134	-2353.184818023412	999.3778789148	2710.879420667741	-2327.847980142659	865.7310417501361	2231.261171316383	-2216.694308768522	779.8317067752289	2335.677022980359	-2460.271458490168	768.6501956783102	2282.691949203071	-2295.404494239718	526.5791968652999	2227.423191236216	-2298.120811204719	487.4065705038841	2392.187278266179	-2349.108519437954	310.0034484045964	2163.3801592962	-2265.914084083611	274.6975996751282	2218.168364850615	-2395.392362968115	244.5093203199106	2232.216366665401	-2332.474370685378	122.6743043048294	2147.411670729195	-2296.354291904849	112.2650860571933	2241.892907723163	-2191.916400880883	58.34083026782833	2209.928376187064	-2219.115017195416	54.76837145125724	2103.426550774395	-2406.065107446535	70.67638910493828	2200.694833848395	-2443.169801399682	702.7153169028725	2630.61156255743	-2333.111700485927	820.0268464416999	2732.256160365999	-2202.554981865412	779.8092508626355	2610.646495084407	-2259.131746197462	527.4893638414479	2724.051211911153	-2236.243536192967	495.0253746783006	2571.417085876456	-2370.880023749692	219.7856869975572	2710.757782388614	-2305.520046707964	320.9860276624754	2775.942086200142	-2247.392084349343	268.8932121091786	2717.752407525159	-2325.71857799794	119.4008307151044	2788.665512369807	-2305.456090802025	114.8983468213242	2695.841578735603	-2177.756926749121	47.85565911746867	2706.708050308859	-2203.974085467598	57.11482248111599	2821.214420849607	-2400.665595247224	69.32990193373224	2739.749177466525	
5	24.51	-2238.220269623132	1550.711783460614	2472.661972872438	-2184.651285744516	1495.998934176332	2315.276921309442	-2129.447178313099	1400.402884131678	2475.627674610977	-2264.646180371543	1020.066192338104	2322.772703780053	-2266.612896228151	1004.420290390136	2645.042414590101	-2484.299312357502	1155.677634518736	2428.940169539164	-2482.909330128051	1155.055660208399	2533.194656486965	-2359.70342320461	990.1925926354185	2251.684749659315	-2354.976541031905	998.449225581019	2711.143908678446	-2329.778857767634	865.5424271339151	2231.156931356058	-2218.370364632436	780.1671117441078	2335.799013813422	-2461.792446151459	768.0387039468754	2282.344813120046	-2295.708457449278	526.6386289990035	2227.228026461979	-2298.767253009055	487.3661050905203	2391.972097676813	-2349.262318841463	310.0382298090154	2163.225508814734	-2266.075611470164	274.7867224212982	2218.056542123742	-2395.573010280378	244.5458501249771	2232.012816540939	-2332.531615281744	122.6704222807845	2147.339851948617	-2296.471057032295	112.3266413262508	2241.823318458436	-2191.954130888836	58.39968238395781	2209.928651432426	-2219.131647946934	54.80382923697073	2103.44543680502	-2406.100034181385	70.66541320488273	2200.656462824573	-2444.408076635575	701.7342953566181	2630.937204602795	-2335.134556848524	819.3044804754708	2732.622717710649	-2204.086833476689	779.9968005176127	2611.172310590154	-2259.313544539981	527.541394704149	2724.47704803437	-2236.318964000825	495.15135151176	2571.762737718667	-2370.937048248102	219.7936485105392	2710.913650040075	-2305.601479355402	321.0495419743459	2776.133853825004	-2247.450684633603	268.9122748906051	2717.945935592659	-2325.790707804274	119.3373761538194	2788.726911867928	-2305.500825413696	114.9096889149863	2695.893747849422	-2177.792592609213	47.8823616063854	2706.713996607974	-2204.014638306034	57.12147084819749	2821.240236504369	-2400.698673751122	69.30097110377376	2739.785053771495	
